<?xml version="1.0" encoding="UTF-8"?>
<svg width="344px" height="48px" viewBox="0 0 344 48" version="1.1" xmlns="http://www.w3.org/2000/svg" xmlns:xlink="http://www.w3.org/1999/xlink">
    <!-- Generator: Sketch 61.2 (89653) - https://sketch.com -->
    <title>Group 3</title>
    <desc>Created with Sketch.</desc>
    <g id="Page-1" stroke="none" stroke-width="1" fill="none" fill-rule="evenodd">
        <g id="Group-3" transform="translate(0.000000, 0.000000)">
            <g id="Group-2" transform="translate(67.800000, 8.645133)" fill-rule="nonzero">
                <path d="M154.56049,28.6283186 L154.56049,8.61061947 L159.390505,8.61061947 L159.390505,10.920354 C159.898928,10.1504425 160.153139,9.63716814 160.661562,9.38053097 C161.169985,9.12389381 161.678407,8.61061947 162.18683,8.61061947 C162.695253,8.3539823 163.203675,8.3539823 163.712098,8.09734513 C164.220521,8.09734513 164.728943,8.09734513 165.237366,8.09734513 L166,8.09734513 L166,13.4867257 C165.491577,13.4867257 164.983155,13.4867257 164.474732,13.4867257 C161.169985,13.4867257 159.644717,15.0265487 159.644717,18.3628319 L159.644717,28.8849558 L154.56049,28.8849558 L154.56049,28.6283186 Z M139.30781,19.9026549 C139.30781,21.4424779 139.816233,22.7256637 140.578867,23.4955752 C141.341501,24.5221239 142.358346,24.7787611 143.629403,24.7787611 C144.392037,24.7787611 145.154671,24.5221239 145.917305,24.2654867 C146.679939,23.7522124 146.93415,23.2389381 147.188361,22.7256637 L152.526799,22.7256637 C152.018377,24.7787611 150.74732,26.3185841 149.222052,27.6017699 C147.696784,28.6283186 145.917305,29.3982301 143.629403,29.3982301 C137.019908,29.3982301 133.715161,25.8053097 133.715161,18.3628319 C133.715161,16.8230088 133.969372,15.2831858 134.477795,14.2566372 C134.986217,12.9734513 135.49464,11.9469027 136.257274,10.920354 C137.019908,9.89380531 138.036753,9.38053097 139.30781,8.86725664 C140.578867,8.3539823 141.849923,8.09734513 143.375191,8.09734513 C146.425727,8.09734513 148.713629,9.12389381 150.238897,11.1769912 C151.764165,13.2300885 152.526799,16.0530973 152.526799,20.159292 L139.30781,20.159292 L139.30781,19.9026549 Z M147.696784,16.5663717 C147.696784,15.7964602 147.442573,15.2831858 147.188361,14.5132743 C146.93415,14 146.679939,13.4867257 146.171516,13.2300885 C145.917305,12.9734513 145.408882,12.7168142 144.900459,12.460177 C144.392037,12.2035398 143.883614,12.2035398 143.375191,12.2035398 C142.358346,12.2035398 141.341501,12.7168142 140.578867,13.4867257 C139.816233,14.2566372 139.30781,15.2831858 139.30781,16.8230088 L147.696784,16.8230088 L147.696784,16.5663717 Z M127.105666,28.6283186 L127.105666,16.5663717 C127.105666,15.2831858 126.851455,14.2566372 126.343032,13.4867257 C125.834609,12.7168142 125.071975,12.460177 124.05513,12.460177 C123.038285,12.460177 122.275651,12.9734513 121.767228,13.7433628 C121.258806,14.5132743 120.750383,15.539823 120.750383,16.8230088 L120.750383,28.8849558 L115.411945,28.8849558 L115.411945,16.8230088 C115.411945,16.0530973 115.411945,15.2831858 115.157734,14.7699115 C115.157734,14.2566372 114.903522,13.7433628 114.649311,13.4867257 C114.3951,13.2300885 114.140888,12.9734513 113.632466,12.9734513 C113.124043,12.9734513 112.869832,12.7168142 112.107198,12.7168142 C110.073507,12.7168142 108.80245,14 108.80245,16.5663717 L108.80245,28.8849558 L103.464012,28.8849558 L103.464012,8.86725664 L108.294028,8.86725664 L108.294028,11.6902655 C109.056662,10.4070796 109.819296,9.38053097 110.836141,8.86725664 C111.852986,8.3539823 112.869832,8.09734513 114.140888,8.09734513 C114.903522,8.09734513 115.411945,8.09734513 115.920368,8.3539823 C116.42879,8.3539823 116.937213,8.61061947 117.445636,8.86725664 C117.954058,9.12389381 118.20827,9.38053097 118.716692,9.89380531 C118.970904,10.4070796 119.479326,10.6637168 119.733538,11.4336283 C120.24196,10.4070796 121.004594,9.38053097 121.767228,9.12389381 C122.529862,8.61061947 123.800919,8.3539823 125.071975,8.3539823 C126.088821,8.3539823 127.105666,8.61061947 127.8683,8.86725664 C128.630934,9.12389381 129.393568,9.63716814 129.901991,10.4070796 C130.410413,10.920354 130.918836,11.6902655 131.173047,12.460177 C131.427259,13.2300885 131.68147,14.2566372 131.68147,15.0265487 L131.68147,28.8849558 L127.105666,28.8849558 L127.105666,28.6283186 Z M92.0245023,29.1415929 C90.4992343,29.1415929 88.9739663,28.8849558 87.7029096,28.3716814 C86.431853,27.8584071 85.4150077,27.0884956 84.3981623,26.3185841 C83.6355283,25.2920354 82.8728943,24.2654867 82.3644717,22.9823009 C81.856049,21.699115 81.6018377,20.159292 81.6018377,18.619469 C81.6018377,17.079646 81.856049,15.539823 82.3644717,14.2566372 C82.8728943,12.9734513 83.6355283,11.9469027 84.3981623,10.920354 C85.4150077,9.89380531 86.431853,9.38053097 87.7029096,8.86725664 C88.9739663,8.3539823 90.4992343,8.09734513 92.0245023,8.09734513 C93.5497703,8.09734513 95.0750383,8.3539823 96.3460949,8.86725664 C97.6171516,9.38053097 98.6339969,10.1504425 99.3966309,10.920354 C100.159265,11.9469027 100.921899,12.9734513 101.430322,14.2566372 C101.938744,15.539823 102.192956,17.079646 102.192956,18.619469 C102.192956,20.159292 101.938744,21.699115 101.430322,22.9823009 C100.921899,24.2654867 100.159265,25.2920354 99.3966309,26.3185841 C98.6339969,27.3451327 97.3629403,27.8584071 96.0918836,28.3716814 C95.0750383,28.8849558 93.5497703,29.1415929 92.0245023,29.1415929 Z M92.0245023,24.7787611 C95.3292496,24.7787611 96.8545176,22.7256637 96.8545176,18.619469 C96.8545176,14.5132743 95.3292496,12.460177 92.0245023,12.460177 C88.719755,12.460177 87.194487,14.5132743 87.194487,18.619469 C87.194487,22.7256637 88.9739663,24.7787611 92.0245023,24.7787611 Z M75.5007657,20.6725664 L80.330781,20.6725664 L80.330781,21.1858407 C80.330781,22.2123894 80.0765697,23.2389381 79.8223583,24.2654867 C79.568147,25.2920354 79.0597243,26.0619469 78.2970904,26.8318584 C77.5344564,27.6017699 76.7718224,28.1150442 75.754977,28.6283186 C74.7381317,29.1415929 73.467075,29.3982301 72.1960184,29.3982301 C70.6707504,29.3982301 69.3996937,29.1415929 68.3828484,28.6283186 C67.3660031,28.1150442 66.6033691,27.6017699 65.8407351,26.8318584 C65.0781011,26.0619469 64.8238897,25.2920354 64.3154671,24.2654867 C64.0612557,23.2389381 63.8070444,22.2123894 63.8070444,21.1858407 L63.8070444,3.22123894 L68.8912711,3.22123894 L68.8912711,8.61061947 L76.517611,8.61061947 L76.517611,12.460177 L68.8912711,12.460177 L68.8912711,20.6725664 C68.8912711,21.9557522 69.1454824,22.9823009 69.6539051,23.7522124 C70.1623277,24.5221239 70.9249617,24.7787611 71.941807,24.7787611 C72.9586524,24.7787611 73.7212864,24.5221239 74.229709,23.7522124 C75.2465544,22.9823009 75.5007657,21.9557522 75.5007657,20.6725664 L75.5007657,20.6725664 Z M57.1975498,14.7699115 C56.9433384,13.7433628 56.6891271,13.2300885 56.1807044,12.7168142 C55.6722818,12.2035398 54.9096478,12.2035398 53.6385911,12.2035398 C52.6217458,12.2035398 51.8591118,12.460177 51.0964778,12.7168142 C50.5880551,12.9734513 50.3338438,13.4867257 50.3338438,14 C50.3338438,14.5132743 50.5880551,15.0265487 51.0964778,15.2831858 C51.6049005,15.539823 52.3675345,15.7964602 53.3843798,16.3097345 C55.1638591,16.8230088 56.6891271,17.3362832 57.7059724,17.5929204 C58.9770291,17.8495575 59.7396631,18.3628319 60.5022971,18.8761062 C61.2649311,19.3893805 61.7733538,19.9026549 62.0275651,20.6725664 C62.2817764,21.4424779 62.5359877,22.2123894 62.5359877,23.4955752 C62.5359877,25.2920354 61.7733538,26.8318584 60.2480858,27.8584071 C58.7228178,29.1415929 56.6891271,29.6548673 53.6385911,29.6548673 C52.1133231,29.6548673 50.8422665,29.3982301 49.8254211,29.1415929 C48.5543645,28.8849558 47.7917305,28.3716814 46.7748851,27.8584071 C46.0122511,27.3451327 45.2496172,26.5752212 44.9954058,25.5486726 C44.4869832,24.7787611 44.2327718,23.7522124 44.2327718,22.7256637 L49.5712098,22.7256637 C49.5712098,23.7522124 49.8254211,24.5221239 50.5880551,25.0353982 C51.3506891,25.5486726 52.3675345,25.8053097 53.3843798,25.8053097 C54.4012251,25.8053097 55.1638591,25.5486726 55.9264931,25.2920354 C56.6891271,25.0353982 56.9433384,24.5221239 56.9433384,23.7522124 C56.9433384,22.9823009 56.6891271,22.4690265 56.1807044,22.2123894 C55.6722818,21.9557522 54.9096478,21.699115 53.8928025,21.4424779 C51.8591118,20.9292035 50.3338438,20.6725664 49.3169985,20.159292 C48.0459418,19.6460177 47.2833078,19.1327434 46.5206738,18.619469 C45.7580398,18.1061947 45.5038285,17.3362832 45.2496172,16.8230088 C44.9954058,16.0530973 44.9954058,15.2831858 44.9954058,14.5132743 C44.9954058,13.7433628 45.2496172,12.9734513 45.5038285,12.460177 C45.7580398,11.6902655 46.2664625,11.1769912 47.0290965,10.6637168 C47.7917305,10.1504425 48.5543645,9.63716814 49.5712098,9.38053097 C50.5880551,9.12389381 51.8591118,8.86725664 53.6385911,8.86725664 C56.4349158,8.86725664 58.4686064,9.38053097 59.9938744,10.6637168 C61.2649311,11.9469027 62.0275651,13.4867257 62.2817764,15.539823 L57.1975498,15.539823 L57.1975498,14.7699115 Z M38.1316998,28.6283186 L38.1316998,25.8053097 C36.8606432,28.1150442 34.8269525,29.1415929 32.0306279,29.1415929 C31.0137825,29.1415929 29.9969372,28.8849558 29.2343032,28.6283186 C28.4716692,28.3716814 27.7090352,27.8584071 27.2006126,27.0884956 C26.6921899,26.3185841 26.1837672,25.5486726 25.9295559,24.7787611 C25.6753446,24.0088496 25.4211332,22.9823009 25.4211332,21.699115 L25.4211332,8.3539823 L30.7595712,8.3539823 L30.7595712,20.6725664 C30.7595712,23.2389381 31.7764165,24.5221239 34.0643185,24.5221239 C35.3353752,24.5221239 36.3522205,24.0088496 37.1148545,23.2389381 C37.8774885,22.4690265 38.1316998,21.1858407 38.1316998,19.9026549 L38.1316998,8.3539823 L43.4701378,8.3539823 L43.4701378,28.3716814 L38.1316998,28.3716814 L38.1316998,28.6283186 Z M24.1500766,19.3893805 C23.8958652,20.9292035 23.3874426,22.4690265 22.6248086,23.4955752 C21.8621746,24.7787611 21.0995406,25.8053097 20.0826953,26.8318584 C19.0658499,27.8584071 18.0490046,28.3716814 16.7779479,28.8849558 C15.5068913,29.3982301 13.9816233,29.6548673 12.4563553,29.6548673 C10.676876,29.6548673 9.15160796,29.3982301 7.62633997,28.6283186 C6.10107198,28.1150442 4.83001531,27.0884956 3.55895865,25.8053097 C2.54211332,24.5221239 1.52526799,23.2389381 1.01684533,21.4424779 C0.508422665,19.6460177 0,17.5929204 0,15.2831858 C0,12.9734513 0.254211332,10.920354 0.762633997,9.12389381 C1.27105666,7.32743363 2.28790199,5.78761062 3.30474732,4.50442478 C4.32159265,3.22123894 5.59264931,2.19469027 7.37212864,1.68141593 C8.89739663,0.911504425 10.676876,0.654867257 12.4563553,0.654867257 C14.2358346,0.654867257 15.7611026,0.911504425 17.0321593,1.42477876 C18.3032159,1.9380531 19.5742726,2.7079646 20.5911179,3.47787611 C21.6079632,4.24778761 22.3705972,5.53097345 22.8790199,6.55752212 C23.3874426,7.84070796 23.8958652,9.12389381 23.8958652,10.4070796 L18.3032159,10.4070796 C18.0490046,8.86725664 17.2863706,7.5840708 16.0153139,6.81415929 C14.9984686,6.04424779 13.7274119,5.53097345 12.4563553,5.53097345 C10.1684533,5.53097345 8.38897397,6.30088496 7.37212864,8.09734513 C6.35528331,9.89380531 5.59264931,12.2035398 5.59264931,15.0265487 C5.59264931,18.1061947 6.10107198,20.4159292 7.1179173,21.9557522 C8.13476263,23.7522124 9.91424196,24.5221239 11.9479326,24.5221239 C13.7274119,24.5221239 14.9984686,24.0088496 16.0153139,23.2389381 C17.0321593,22.2123894 17.7947933,20.9292035 18.0490046,19.3893805 L24.1500766,19.3893805 L24.1500766,19.3893805 Z" id="Shape" fill="#008CD4"></path>
                <path d="M270.605985,27.8912309 L270.605985,15.9275945 C270.605985,14.4003218 270.349127,13.38214 269.835411,12.8730491 C269.321696,12.3639582 268.551122,12.1094127 267.266833,12.1094127 C264.441397,12.1094127 263.157107,13.6366854 263.157107,16.6912309 L263.157107,28.1457763 L257.763092,28.1457763 L257.763092,8.29123089 L262.900249,8.29123089 L262.900249,11.0912309 C263.413965,10.0730491 264.441397,9.05486726 265.468828,8.54577635 C266.496259,8.03668544 267.780549,7.78213998 269.578554,7.78213998 C270.605985,7.78213998 271.376559,8.03668544 272.147132,8.29123089 C272.917706,8.54577635 273.688279,9.05486726 274.201995,9.56395817 C274.715711,10.0730491 275.229426,10.8366854 275.486284,11.6003218 C275.743142,12.3639582 276,13.38214 276,14.4003218 L276,28.1457763 L270.605985,28.1457763 L270.605985,27.8912309 Z M242.094763,19.2366854 C242.094763,20.7639582 242.608479,22.0366854 243.379052,22.8003218 C244.149626,23.8185036 245.177057,24.0730491 246.461347,24.0730491 C247.23192,24.0730491 248.002494,23.8185036 248.773067,23.5639582 C249.543641,23.0548673 249.800499,22.5457763 250.057357,22.0366854 L255.451372,22.0366854 C254.937656,24.0730491 253.653367,25.6003218 252.112219,26.8730491 C250.571072,27.8912309 248.773067,28.6548673 246.461347,28.6548673 C239.783042,28.6548673 236.44389,25.0912309 236.44389,17.7094127 C236.44389,16.18214 236.700748,14.6548673 237.214464,13.6366854 C237.72818,12.3639582 238.241895,11.3457763 239.012469,10.3275945 C239.783042,9.30941271 240.810474,8.8003218 242.094763,8.29123089 C243.379052,7.78213998 244.663342,7.52759453 246.204489,7.52759453 C249.286783,7.52759453 251.598504,8.54577635 253.139651,10.58214 C254.680798,12.6185036 255.451372,15.4185036 255.451372,19.4912309 L242.094763,19.4912309 L242.094763,19.2366854 Z M250.571072,15.9275945 C250.571072,15.1639582 250.314214,14.6548673 250.057357,13.8912309 C249.800499,13.38214 249.543641,12.8730491 249.029925,12.6185036 C248.773067,12.3639582 248.259352,12.1094127 247.745636,11.8548673 C247.23192,11.6003218 246.718204,11.6003218 246.204489,11.6003218 C245.177057,11.6003218 244.149626,12.1094127 243.379052,12.8730491 C242.608479,13.6366854 242.094763,14.6548673 242.094763,16.18214 L250.571072,16.18214 L250.571072,15.9275945 Z M224.628429,27.8912309 L217.436409,8.03668544 L223.34414,8.03668544 L227.453865,21.2730491 L231.820449,8.03668544 L237.471322,8.03668544 L230.279302,27.8912309 L224.628429,27.8912309 Z M210.758105,5.49123089 L210.758105,0.654867257 L216.15212,0.654867257 L216.15212,5.49123089 L210.758105,5.49123089 Z M210.758105,27.8912309 L210.758105,8.03668544 L216.15212,8.03668544 L216.15212,27.8912309 L210.758105,27.8912309 Z M197.658354,27.8912309 L197.658354,8.03668544 L202.538653,8.03668544 L202.538653,10.3275945 C203.052369,9.56395817 203.309227,9.05486726 203.822943,8.8003218 C204.336658,8.54577635 204.850374,8.03668544 205.36409,8.03668544 C205.877805,7.78213998 206.391521,7.78213998 206.905237,7.52759453 C207.418953,7.52759453 207.932668,7.52759453 208.446384,7.52759453 L209.216958,7.52759453 L209.216958,12.8730491 C208.703242,12.8730491 208.189526,12.8730491 207.67581,12.8730491 C204.336658,12.8730491 202.795511,14.4003218 202.795511,17.7094127 L202.795511,28.1457763 L197.658354,28.1457763 L197.658354,27.8912309 Z M173,27.8912309 L173,0.909412711 L183.531172,0.909412711 C185.329177,0.909412711 187.127182,1.16395817 188.668329,1.92759453 C190.209476,2.43668544 191.493766,3.45486726 192.778055,4.47304907 C193.805486,5.49123089 194.832918,7.01850362 195.346633,8.54577635 C195.860349,10.0730491 196.374065,12.1094127 196.374065,14.1457763 C196.374065,16.18214 196.117207,17.9639582 195.603491,19.7457763 C195.089776,21.5275945 194.319202,22.8003218 193.291771,24.0730491 C192.264339,25.3457763 190.98005,26.1094127 189.695761,26.8730491 C188.154613,27.6366854 186.613466,27.8912309 184.815461,27.8912309 L173,27.8912309 L173,27.8912309 Z M183.274314,23.3094127 C185.842893,23.3094127 187.640898,22.5457763 188.668329,21.0185036 C189.695761,19.4912309 190.466334,17.2003218 190.466334,14.1457763 C190.466334,12.6185036 190.209476,11.3457763 189.952618,10.3275945 C189.695761,9.30941271 189.182045,8.29123089 188.668329,7.78213998 C188.154613,7.01850362 187.38404,6.50941271 186.356608,6.25486726 C185.329177,6.0003218 184.301746,5.74577635 182.760599,5.74577635 L178.650873,5.74577635 L178.650873,23.3094127 L183.274314,23.3094127 Z" id="Shape" fill="#333333"></path>
            </g>
            <path d="M203.3,0.4 C203.4,0.4 203.4,0.5 203.4,0.7 C203.4,0.9 203.4,1 203.3,1 C203.2,1 203.2,0.9 203.2,0.7 C203.2,0.5 203.2,0.4 203.3,0.4 Z" id="Path" stroke="#1F1A17" stroke-width="0.216"></path>
            <path d="M23.3,19.8 C22.5,19.8 21.8,19.9 21.2,20.2 C20.5,20.5 19.9,20.9 19.4,21.4 C18.9,21.9 18.5,22.5 18.2,23.2 C17.9,23.9 17.8,24.6 17.8,25.3 C17.8,26.1 17.9,26.8 18.2,27.4 C18.5,28.1 18.9,28.7 19.4,29.2 C19.9,29.7 20.5,30.1 21.2,30.4 C21.9,30.7 22.6,30.8 23.3,30.8 C24,30.8 24.7,30.7 25.4,30.4 C26.1,30.1 26.6,29.7 27.2,29.2 C27.7,28.7 28.1,28.1 28.4,27.4 C28.7,26.7 28.8,26 28.8,25.3 C28.8,24.5 28.7,23.8 28.4,23.1 C28.1,22.4 27.7,21.8 27.2,21.3 C26.7,20.8 26.1,20.4 25.4,20.1 C24.7,19.9 24,19.8 23.3,19.8 M27.2,36.5 C27.5,36.4 27.8,36.3 28,36.2 C29.4,35.7 30.7,35 31.8,34.1 C32.9,33.1 34.2,32.6 35.7,32.6 C37.2,32.6 38.5,33.1 39.5,34.1 C40.5,35.1 41.1,36.4 41.1,37.9 C41.1,39.1 40.8,40.1 40.2,40.8 C39.6,41.5 39.1,42.1 38.6,42.5 C38.4,42.7 37.9,43.1 37.2,43.7 C36.5,44.3 35.5,44.8 34.2,45.4 C33,46 31.5,46.5 29.7,47 C28,47.5 25.9,47.7 23.7,47.7 C20.4,47.7 17.3,47.1 14.5,45.8 C11.6,44.5 9.1,42.8 7,40.7 C4.9,38.5 3.2,36 1.9,33.1 C0.7,30.2 0,27.1 0,23.8 C0,20.5 0.6,17.4 1.9,14.6 C3.1,11.7 4.8,9.2 7,7 C9.1,4.8 11.6,3.1 14.5,1.9 C17.4,0.7 20.5,-3.55271368e-15 23.7,-3.55271368e-15 C26,-3.55271368e-15 28,0.2 29.7,0.7 C31.4,1.2 32.9,1.7 34.2,2.3 C35.4,2.9 36.4,3.5 37.1,4 C37.8,4.6 38.3,4.9 38.5,5.1 C39,5.6 39.5,6.1 40.2,6.9 C40.8,7.6 41.1,8.6 41.1,9.9 C41.1,11.4 40.6,12.7 39.5,13.7 C38.4,14.7 37.2,15.3 35.7,15.3 C35.5,15.3 35.4,15.3 35.2,15.3 L35.2,9 C35.2,8 34.9,7.3 34.2,6.7 C33.6,6.1 32.8,5.8 32,5.8 C31.6,5.8 31.2,5.9 30.8,6 C30.4,6.2 30.1,6.4 29.8,6.7 C29.5,7 29.3,7.3 29.1,7.7 C28.9,8.1 28.8,8.5 28.8,8.9 L28.8,13 C28.5,14 27.5,13.9 27,13.8 C25.9,13.4 24.6,13.2 23.4,13.2 C21.8,13.2 20.3,13.5 18.8,14.2 C17.4,14.8 16.1,15.7 15,16.8 C13.9,17.9 13,19.2 12.4,20.6 C11.8,22 11.4,23.6 11.4,25.2 C11.4,26.8 11.7,28.4 12.4,29.8 C13.1,31.2 13.9,32.5 15,33.6 C16.1,34.7 17.4,35.5 18.8,36.2 C20.2,36.8 21.8,37.1 23.3,37.1 C24.7,37.3 26,37 27.2,36.5 Z" id="Shape" fill="#008CD4"></path>
        </g>
    </g>
</svg>